<svg width="207" height="62" viewBox="0 0 207 62" fill="none" xmlns="http://www.w3.org/2000/svg">
<path d="M0.549286 0.424805C6.98977 3.70254 13.4421 6.95976 19.8582 10.2803C20.2569 10.5306 20.7228 10.6646 21.1993 10.6662C21.6758 10.6677 22.1426 10.5368 22.5431 10.2892C28.3583 7.25915 34.2133 4.29885 40.0599 1.32086C40.5822 1.05438 41.1271 0.827887 41.8107 0.513985V45.4631H0.549286V0.424805Z" fill="black"/>
<path d="M125.61 62.0002V16.3776C126.041 16.3091 126.476 16.2626 126.912 16.2385C131.337 16.2293 135.763 16.1925 140.187 16.2424C142.216 16.2523 144.223 16.6463 146.092 17.402C147.962 18.1576 149.657 19.2599 151.081 20.6456C152.506 22.0314 153.631 23.6732 154.392 25.4771C155.153 27.2809 155.536 29.2112 155.517 31.1571C155.47 39.3055 148.551 45.8273 139.938 45.8408C139.203 45.8408 138.468 45.8408 137.415 45.8408V62.0002H125.61Z" fill="black"/>
<path d="M206.404 15.9062H194.698V45.4625H206.404V15.9062Z" fill="black"/>
<path d="M190.196 30.8858C190.209 33.7973 189.321 36.647 187.644 39.0739C185.967 41.5009 183.577 43.396 180.777 44.5194C177.977 45.6428 174.893 45.9439 171.914 45.3846C168.935 44.8253 166.197 43.4307 164.045 41.3774C161.893 39.3242 160.424 36.7046 159.825 33.8503C159.226 30.996 159.524 28.0354 160.68 25.3432C161.836 22.6511 163.798 20.3486 166.319 18.7271C168.84 17.1057 171.806 16.2383 174.841 16.2347C176.854 16.2226 178.85 16.5928 180.713 17.3238C182.576 18.0549 184.27 19.1323 185.698 20.4942C187.125 21.856 188.257 23.4753 189.029 25.2588C189.801 27.0422 190.198 28.9546 190.196 30.8858Z" fill="black"/>
<path d="M108.019 34.148V39.0384H119.586V45.7071H96.2044V16.3564H119.611V34.148H108.019Z" fill="black"/>
<path d="M90.8884 16.353V27.5218H79.1909V45.7118H67.4226V16.353H90.8884Z" fill="black"/>
<path d="M60.2176 16.2949H48.604V45.7188H60.2176V16.2949Z" fill="black"/>
<path d="M60.3335 6.09079C60.3329 7.21429 59.9852 8.31242 59.3342 9.24638C58.6832 10.1804 57.7583 10.9082 56.6762 11.3381C55.5941 11.7679 54.4035 11.8804 53.2548 11.6613C52.1061 11.4422 51.0509 10.9014 50.2225 10.1072C49.3941 9.31295 48.8297 8.301 48.6007 7.19919C48.3717 6.09738 48.4882 4.95517 48.9357 3.9169C49.3832 2.87863 50.1414 1.99091 51.1147 1.36592C52.0879 0.740924 53.2325 0.406715 54.4037 0.405526C55.1841 0.398443 55.9583 0.540637 56.6809 0.8238C57.4034 1.10696 58.0599 1.52542 58.612 2.05472C59.1641 2.58402 59.6006 3.21355 59.8962 3.90654C60.1918 4.59952 60.3405 5.34207 60.3335 6.09079Z" fill="black"/>
<path d="M206.451 6.05533C206.451 7.17522 206.105 8.26996 205.456 9.20111C204.808 10.1323 203.886 10.858 202.807 11.2866C201.729 11.7151 200.542 11.8273 199.397 11.6088C198.252 11.3903 197.2 10.851 196.375 10.0592C195.549 9.26727 194.987 8.25835 194.759 7.15998C194.532 6.06161 194.648 4.92312 195.095 3.88847C195.542 2.85383 196.299 1.96951 197.269 1.34733C198.24 0.725152 199.381 0.393066 200.549 0.393066C202.114 0.393066 203.615 0.989625 204.722 2.0515C205.829 3.11338 206.451 4.5536 206.451 6.05533Z" fill="black"/>
</svg>
